<?xml version="1.0" standalone="no"?>
<!DOCTYPE svg PUBLIC "-//W3C//DTD SVG 20010904//EN"
 "http://www.w3.org/TR/2001/REC-SVG-20010904/DTD/svg10.dtd">
<svg version="1.0" xmlns="http://www.w3.org/2000/svg"
 width="200.000000pt" height="200.000000pt" viewBox="0 0 200.000000 200.000000"
 preserveAspectRatio="xMidYMid meet">
<metadata>
Created by potrace 1.14, written by Peter Selinger 2001-2017
</metadata>
<g transform="translate(0.000000,200.000000) scale(0.100000,-0.100000)"
fill="#000000" stroke="none">
<path d="M0 1000 l0 -1000 1000 0 1000 0 0 1000 0 1000 -1000 0 -1000 0 0
-1000z m1682 512 l23 -23 0 -365 0 -366 -28 -24 c-27 -23 -33 -24 -188 -24
l-160 0 3 -82 3 -83 52 -3 c39 -2 55 -8 63 -22 13 -25 3 -49 -24 -55 -11 -3
-135 -4 -275 -3 -229 3 -255 5 -265 20 -19 31 4 53 63 56 l51 3 0 85 0 84
-159 0 c-158 0 -158 0 -185 26 l-26 27 0 353 c0 369 2 392 44 412 14 7 183 10
503 9 l482 -2 23 -23z m-1132 -142 l0 -80 -130 0 -130 0 0 68 c0 40 5 73 12
80 8 8 52 12 130 12 l118 0 0 -80z m-2 -202 l3 -38 -130 0 -131 0 0 40 0 41
128 -3 127 -3 3 -37z m2 -277 c0 -137 2 -150 23 -182 38 -57 81 -79 153 -79
l64 0 0 -69 c0 -105 9 -101 -250 -101 -185 0 -221 2 -234 16 -14 13 -16 54
-16 290 l0 274 130 0 130 0 0 -149z"/>
<path d="M518 619 c-44 -25 -3 -93 42 -69 26 14 26 56 1 70 -23 12 -22 12 -43
-1z"/>
</g>
</svg>
